<?xml version="1.0" encoding="utf-8"?>
<!-- Generator: Adobe Illustrator 28.1.0, SVG Export Plug-In . SVG Version: 6.00 Build 0)  -->
<svg version="1.1" id="Calque_1" xmlns="http://www.w3.org/2000/svg" xmlns:xlink="http://www.w3.org/1999/xlink" x="0px" y="0px"
	 viewBox="0 0 100 100" style="enable-background:new 0 0 100 100;" xml:space="preserve">
<style type="text/css">
	.st0{fill:#FF4E00;}
</style>
<path class="st0" d="M82,8H18C12.5,8,8,12.5,8,18v64c0,5.5,4.5,10,10,10h64c5.5,0,10-4.5,10-10V18C92,12.5,87.5,8,82,8z M74,38h-4
	c-4.3,0-6,1-6,4v6h10l-2,10h-8v30H54V58h-8V48h8v-6c0-8,4-14,12-14c5.8,0,8,2,8,2V38z"/>
</svg>
