<?xml version="1.0" encoding="utf-8"?>
<!-- Generator: Adobe Illustrator 28.1.0, SVG Export Plug-In . SVG Version: 6.00 Build 0)  -->
<svg version="1.1" id="Calque_1" xmlns="http://www.w3.org/2000/svg" xmlns:xlink="http://www.w3.org/1999/xlink" x="0px" y="0px"
	 viewBox="0 0 96 96" style="enable-background:new 0 0 96 96;" xml:space="preserve">
<style type="text/css">
	.st0{fill:#FF4E00;}
</style>
<path class="st0" d="M32,12c-11,0-20,9-20,20v32c0,11,9,20,20,20h32c11,0,20-9,20-20V32c0-11-9-20-20-20H32z M32,20h32
	c6.6,0,12,5.4,12,12v32c0,6.6-5.4,12-12,12H32c-6.6,0-12-5.4-12-12V32C20,25.4,25.4,20,32,20z M68,24c-2.2,0-4,1.8-4,4s1.8,4,4,4
	s4-1.8,4-4S70.2,24,68,24z M48,28c-11,0-20,9-20,20s9,20,20,20s20-9,20-20S59,28,48,28z M48,36c6.6,0,12,5.4,12,12s-5.4,12-12,12
	s-12-5.4-12-12S41.4,36,48,36z"/>
</svg>
