<?xml version="1.0" encoding="utf-8"?>
<!-- Generator: Adobe Illustrator 28.1.0, SVG Export Plug-In . SVG Version: 6.00 Build 0)  -->
<svg version="1.1" id="Calque_1" xmlns="http://www.w3.org/2000/svg" xmlns:xlink="http://www.w3.org/1999/xlink" x="0px" y="0px"
	 viewBox="0 0 100 100" style="enable-background:new 0 0 100 100;" xml:space="preserve">
<style type="text/css">
	.st0{fill:#FF4E00;}
</style>
<path class="st0" d="M22,8C14.3,8,8,14.3,8,22v56c0,7.7,6.3,14,14,14h56c7.7,0,14-6.3,14-14V22c0-7.7-6.3-14-14-14H22z M26.2,26H42
	l11.3,16L67,26h5L55.6,45.2L75.8,74H60L46.9,55.4L31,74h-5l18.6-21.8L26.2,26z M33.8,30L62,70h6.1L40,30H33.8z"/>
</svg>
